<svg xmlns="http://www.w3.org/2000/svg" viewBox="0 0 200 200">
  <!-- Background -->
  <rect width="200" height="200" fill="#f5f5f5"/>
  
  <!-- Sky gradient -->
  <rect width="200" height="150" fill="#7ec0ee"/>
  
  <!-- River -->
  <path d="M0,120 C40,100 160,140 200,120 L200,200 L0,200 Z" fill="#3a7ca5"/>
  
  <!-- Edmonton skyline silhouette -->
  <path d="M0,120 L20,120 L25,90 L35,90 L40,70 L45,70 L50,110 L60,110 L65,80 L70,80 L75,100 L85,100 L90,60 L100,60 L105,90 L110,90 L115,70 L125,70 L130,100 L140,100 L145,80 L155,80 L160,120 L200,120" fill="#2a2a3a"/>
  
  <!-- Instagram-style frame -->
  <rect x="0" y="0" width="200" height="200" fill="none" stroke="#4b3f72" stroke-width="8"/>
</svg>
