<svg xmlns="http://www.w3.org/2000/svg" viewBox="0 0 200 200">
  <!-- Background -->
  <rect width="200" height="200" fill="#f5f5f5"/>
  
  <!-- Background circle -->
  <circle cx="100" cy="100" r="80" fill="#f0f0f0"/>
  
  <!-- People silhouettes in a circle -->
  <circle cx="100" cy="60" r="15" fill="#4b3f72"/>
  <path d="M90,75 L85,110 L115,110 L110,75" fill="#4b3f72"/>
  
  <circle cx="140" cy="100" r="15" fill="#c8102e"/>
  <path d="M130,115 L125,150 L155,150 L150,115" fill="#c8102e"/>
  
  <circle cx="60" cy="100" r="15" fill="#3a7ca5"/>
  <path d="M50,115 L45,150 L75,150 L70,115" fill="#3a7ca5"/>
  
  <circle cx="100" cy="140" r="15" fill="#7bba74"/>
  <path d="M90,155 L85,190 L115,190 L110,155" fill="#7bba74"/>
  
  <!-- Connection lines -->
  <line x1="100" y1="80" x2="60" y2="100" stroke="#ddd" stroke-width="2"/>
  <line x1="100" y1="80" x2="140" y2="100" stroke="#ddd" stroke-width="2"/>
  <line x1="60" y1="100" x2="100" y2="140" stroke="#ddd" stroke-width="2"/>
  <line x1="140" y1="100" x2="100" y2="140" stroke="#ddd" stroke-width="2"/>
  
  <!-- Instagram-style frame -->
  <rect x="0" y="0" width="200" height="200" fill="none" stroke="#4b3f72" stroke-width="8"/>
</svg>
