<svg xmlns="http://www.w3.org/2000/svg" viewBox="0 0 300 100">
  <!-- Instagram Icon -->
  <g transform="translate(25, 50)">
    <circle cx="0" cy="0" r="40" fill="#4b3f72" opacity="0.1"/>
    <rect x="-15" y="-15" width="30" height="30" rx="8" fill="none" stroke="#4b3f72" stroke-width="3"/>
    <circle cx="0" cy="0" r="7" fill="none" stroke="#4b3f72" stroke-width="3"/>
    <circle cx="11" cy="-11" r="2" fill="#4b3f72"/>
  </g>
  
  <!-- YouTube Icon -->
  <g transform="translate(150, 50)">
    <circle cx="0" cy="0" r="40" fill="#4b3f72" opacity="0.1"/>
    <rect x="-15" y="-10" width="30" height="20" rx="5" fill="none" stroke="#4b3f72" stroke-width="3"/>
    <polygon points="-5,-5 -5,5 5,0" fill="#4b3f72"/>
  </g>
  
  <!-- TikTok Icon -->
  <g transform="translate(275, 50)">
    <circle cx="0" cy="0" r="40" fill="#4b3f72" opacity="0.1"/>
    <path d="M5,15 C5,8 10,2 18,2 L18,-2 L18,-15 L8,-15 L8,5 C8,12 0,12 0,6 C0,0 8,0 8,6" fill="none" stroke="#4b3f72" stroke-width="3" stroke-linecap="round"/>
  </g>
</svg>
